<?xml version="1.0" encoding="UTF-8"?><svg id="Layer_2" xmlns="http://www.w3.org/2000/svg" viewBox="0 0 143.1 32.29"><defs><style>.cls-1{fill:aqua;}.cls-2{fill:#fff;}</style></defs><g id="Layer_1-2"><path class="cls-2" d="m10.55,2.34c-.15-.42-.28-.79-.44-1.23.78-.23,1.5-.47,2.24-.64,3.72-.85,7.34-.56,10.81,1.04,3.9,1.8,6.59,4.77,8.2,8.74.77,1.9,1.19,3.88,1.16,5.93-.05,3.54-1.05,6.8-3.23,9.64-.66.86-1.43,1.63-2.17,2.43-.36.39-.86.3-1.31.36-.13-.22-.25-.41-.39-.62.34-.31.69-.6,1.01-.92,2.52-2.43,4.12-5.35,4.6-8.83.63-4.57-.65-8.59-3.71-12.01-2.52-2.82-5.7-4.42-9.46-4.82-2.44-.26-4.82.03-7.13.88-.05.02-.1.03-.19.06Z"/><path class="cls-2" d="m7.12,28.11c-.18.23-.35.44-.52.65-.09.12-.17.24-.25.36C-2.16,22.54-2.03,10.08,6.21,3.46c.25.32.51.65.76.97C-.38,10.59-.83,21.86,7.12,28.11Z"/><path class="cls-2" d="m2.26,15.31l1.31-.1c-.02,5.97,2.75,10.18,8,12.89-1.22,1.5-2.55,2.84-3.86,4.18-.29-.24-.58-.48-.88-.73.92-1.01,1.83-2.01,2.76-3.02-4.86-3.13-7.26-7.51-7.32-13.23Z"/><path class="cls-1" d="m23.95,14.54c0,1.03-.84,1.85-1.88,1.84-1.09,0-1.89-.8-1.91-1.86-.01-.84.67-1.9,1.94-1.86,1.04.03,1.85.82,1.84,1.87Z"/><path class="cls-2" d="m27.28,11.55c-.51-.26-.73-.7-1.03-1.08-.61-.78-1.22-1.56-1.83-2.34-.39-.5-.77-1-1.18-1.48-.68-.78-1.49-1.38-2.43-1.82-1.3-.62-2.68-.93-4.11-1.06-.14-.01-.28-.04-.42-.08,4.34-.61,9.38,2.51,11,7.85Z"/><path class="cls-2" d="m15.52,13.98v.78H6.16v-.78h9.36Z"/><path class="cls-2" d="m7.16,18.69c.5.28.71.73.99,1.12.58.8,1.16,1.61,1.74,2.41.37.51.73,1.03,1.12,1.52.65.8,1.44,1.43,2.36,1.91,1.28.67,2.65,1.03,4.07,1.21.14.02.28.05.42.09-4.36.44-9.28-2.86-10.7-8.26Z"/><path class="cls-2" d="m40.13,6.75c0-.41.33-.74.74-.74s.74.33.74.74v16.18c0,.41-.33.74-.74.74s-.74-.33-.74-.74V6.75Z"/><path class="cls-2" d="m54.85,14.55c0-2.26-1.77-4.06-4-4.06h-4.39v12.45c0,.41-.33.74-.74.74s-.74-.33-.74-.74v-13.05c0-.46.33-.82.82-.82h5.04c3.05,0,5.48,2.42,5.48,5.48v8.39c0,.41-.33.74-.74.74s-.74-.33-.74-.74v-8.39Z"/><path class="cls-2" d="m65.21,23.51c-2.7,0-4.69-1.99-4.69-4.71v-8.31h-2.4c-.38,0-.71-.33-.71-.71s.33-.71.71-.71h2.4v-3.62c0-.41.33-.74.74-.74s.74.33.74.74v3.62h5.01c.38,0,.71.33.71.71s-.33.71-.71.71h-5.01v8.31c0,1.96,1.31,3.3,3.22,3.3h1.8c.38,0,.71.33.71.71s-.33.71-.71.71h-1.8Z"/><path class="cls-2" d="m76.17,23.51c-4.25,0-7.49-3.08-7.49-7.22s3.24-7.22,7.49-7.22h1.44c2.62,0,4.36,1.85,4.36,4.06s-1.74,4.03-4.36,4.03h-4.39c-.38,0-.71-.33-.71-.71s.33-.71.71-.71h4.39c1.74,0,2.89-1.17,2.89-2.62s-1.14-2.64-2.89-2.64h-1.44c-3.41,0-6.02,2.45-6.02,5.8s2.62,5.8,6.02,5.8h3.9c.38,0,.71.33.71.71s-.33.71-.71.71h-3.9Z"/><path class="cls-2" d="m84.59,3.86c0-.41.33-.74.74-.74s.74.33.74.74v19.07c0,.41-.33.74-.74.74s-.74-.33-.74-.74V3.86Z"/><path class="cls-2" d="m89.45,3.86c0-.41.33-.74.74-.74s.74.33.74.74v19.07c0,.41-.33.74-.74.74s-.74-.33-.74-.74V3.86Z"/><path class="cls-1" d="m94.03,4.33c0-.57.46-1.03,1.03-1.03s1.04.46,1.04,1.03-.46,1.03-1.04,1.03-1.03-.46-1.03-1.03Z"/><path class="cls-2" d="m94.33,9.64c0-.41.33-.74.73-.74s.74.33.74.74v13.3c0,.41-.33.74-.74.74s-.73-.33-.73-.74v-13.3Z"/><path class="cls-2" d="m100.02,23.51c-.46,0-.82-.35-.82-.82V7c0-.46.35-.82.82-.82h6.27c2.81,0,4.79,2.04,4.79,4.66,0,1.8-.95,3.3-2.51,4.01,1.55.68,2.51,2.21,2.51,4.01,0,2.62-1.99,4.66-4.85,4.66h-6.21Zm6.21-1.42c1.99,0,3.38-1.5,3.38-3.27s-1.34-3.27-3.38-3.27h-3.35c-.38,0-.71-.33-.71-.71s.33-.71.71-.71h3.35c2.02,0,3.38-1.44,3.38-3.27s-1.36-3.27-3.38-3.27h-5.56v14.5h5.56Z"/><path class="cls-2" d="m113.39,16.29c0-4.2,3.24-7.57,7.52-7.57s7.52,3.38,7.52,7.57-3.27,7.57-7.52,7.57-7.52-3.38-7.52-7.57Zm13.57,0c0-3.41-2.64-6.16-6.05-6.16s-6.05,2.75-6.05,6.16,2.62,6.19,6.05,6.19,6.05-2.75,6.05-6.19Z"/><path class="cls-2" d="m136.75,23.51c-2.7,0-4.69-1.99-4.69-4.71v-8.31h-2.4c-.38,0-.71-.33-.71-.71s.33-.71.71-.71h2.4v-3.62c0-.41.33-.74.73-.74s.74.33.74.74v3.62h5.01c.38,0,.71.33.71.71s-.33.71-.71.71h-5.01v8.31c0,1.96,1.31,3.3,3.21,3.3h1.8c.38,0,.71.33.71.71s-.33.71-.71.71h-1.8Z"/><path class="cls-1" d="m140.92,22.61c0-.6.49-1.09,1.09-1.09s1.09.49,1.09,1.09-.49,1.09-1.09,1.09-1.09-.49-1.09-1.09Z"/></g></svg>