<?xml version="1.0" encoding="UTF-8"?><svg id="Layer_2" xmlns="http://www.w3.org/2000/svg" viewBox="0 0 24 24"><defs><style>.cls-1{fill:aqua;}.cls-2{fill:#fff;}</style></defs><g id="Layer_1-2"><circle cx="12" cy="12" r="12"/><path class="cls-2" d="m8.82,3.87c-.08-.23-.15-.43-.24-.67.42-.12.82-.26,1.22-.35,2.02-.46,3.99-.3,5.88.57,2.12.98,3.58,2.59,4.46,4.75.42,1.03.65,2.11.63,3.22-.03,1.93-.57,3.7-1.75,5.24-.36.47-.78.89-1.18,1.32-.19.21-.47.16-.71.19-.07-.12-.14-.22-.21-.34.19-.17.37-.33.55-.5,1.37-1.32,2.24-2.91,2.5-4.8.34-2.49-.36-4.67-2.02-6.53-1.37-1.53-3.1-2.4-5.15-2.62-1.33-.14-2.62.02-3.88.48-.03,0-.05.02-.1.04Z"/><path class="cls-2" d="m6.96,17.89c-.1.13-.19.24-.28.35-.05.06-.09.13-.14.19-4.63-3.57-4.56-10.35-.08-13.95.14.18.28.35.41.53-4,3.35-4.24,9.48.08,12.88Z"/><path class="cls-2" d="m4.31,10.93l.71-.05c-.01,3.24,1.5,5.54,4.35,7.01-.66.82-1.39,1.55-2.1,2.27-.16-.13-.31-.26-.48-.4.5-.55,1-1.09,1.5-1.64-2.64-1.7-3.95-4.08-3.98-7.19Z"/><path class="cls-1" d="m16.1,10.51c0,.56-.46,1-1.02,1-.59,0-1.03-.43-1.04-1.01,0-.46.37-1.03,1.05-1.01.57.02,1.01.45,1,1.02Z"/><path class="cls-2" d="m17.92,8.88c-.28-.14-.4-.38-.56-.59-.33-.42-.66-.85-1-1.27-.21-.27-.42-.54-.64-.8-.37-.42-.81-.75-1.32-.99-.71-.34-1.46-.51-2.24-.57-.08,0-.15-.02-.23-.04,2.36-.33,5.1,1.36,5.98,4.27Z"/><path class="cls-2" d="m11.52,10.21v.42h-5.09v-.42h5.09Z"/><path class="cls-2" d="m6.98,12.77c.27.15.38.4.54.61.32.44.63.87.95,1.31.2.28.4.56.61.83.35.44.78.78,1.28,1.04.7.36,1.44.56,2.21.66.08,0,.15.03.23.05-2.37.24-5.05-1.55-5.82-4.49Z"/></g></svg>